<svg xmlns="http://www.w3.org/2000/svg" width="16" height="16" fill="none" viewBox="0 0 16 16"><g fill="currentColor"><path d="M5.999 1.333A3.17 3.17 0 0 0 2.832 4.5c0 1.713 1.34 3.1 3.087 3.16a.5.5 0 0 1 .146 0h.047A3.16 3.16 0 0 0 9.165 4.5 3.17 3.17 0 0 0 6 1.333M9.389 9.433c-1.86-1.24-4.894-1.24-6.767 0-.847.567-1.313 1.333-1.313 2.153s.466 1.58 1.306 2.14c.934.627 2.16.94 3.387.94s2.453-.313 3.387-.94c.84-.566 1.306-1.326 1.306-2.153-.006-.82-.466-1.58-1.306-2.14M13.326 4.893a2.386 2.386 0 0 1-2.086 2.58h-.034c-.04 0-.08 0-.113.013a2.4 2.4 0 0 1-1.687-.553 3.05 3.05 0 0 0 1-2.533 3.1 3.1 0 0 0-.513-1.454 2.395 2.395 0 0 1 3.433 1.947"/><path d="M14.662 11.06c-.054.647-.467 1.207-1.16 1.587-.667.366-1.507.54-2.34.52.48-.434.76-.974.813-1.547.066-.827-.327-1.62-1.114-2.253a5.5 5.5 0 0 0-1.533-.84c1.474-.427 3.327-.14 4.467.78.613.493.927 1.113.867 1.753"/></g></svg>