<svg xmlns="http://www.w3.org/2000/svg" width="14" height="16" fill="none" viewBox="0 0 14 16"><path fill="currentColor" d="M13.195 12.469a8.7 8.7 0 0 1-.86 1.547q-.68.966-1.109 1.339-.663.61-1.424.627-.547 0-1.315-.314-.77-.314-1.417-.313-.678-.001-1.456.313-.779.315-1.258.33-.73.032-1.457-.643-.464-.405-1.159-1.387a9.6 9.6 0 0 1-1.225-2.434Q0 10.036 0 8.632 0 7.023.696 5.86a4.1 4.1 0 0 1 1.457-1.474 3.9 3.9 0 0 1 1.97-.556q.58.001 1.524.355.943.354 1.209.355.199 0 1.34-.418 1.077-.388 1.822-.324 2.02.163 3.03 1.595-1.806 1.096-1.788 3.062.016 1.532 1.109 2.545.494.47 1.108.727-.134.387-.282.742M10.107.32q0 1.2-.875 2.239C8.53 3.38 7.68 3.856 6.756 3.78a3 3 0 0 1-.018-.303c0-.768.334-1.59.928-2.263q.445-.51 1.13-.849Q9.483.032 10.092 0q.016.16.016.32"/></svg>