<svg xmlns="http://www.w3.org/2000/svg" width="253" height="85" fill="none" viewBox="0 0 253 85"><g fill="currentColor"><path d="M59.45 15.775v53.728H48.676v-34.95l-14.397 34.95h-8.16l-14.471-34.95v34.95H.87V15.775h12.236l17.088 39.95 17.087-39.95H59.45M81.15 66.5c-4.21-2.362-7.542-5.633-10.009-9.814q-3.697-6.268-3.696-14.203c0-5.291 1.23-9.941 3.697-14.13 2.466-4.18 5.797-7.451 10.007-9.813S89.972 15 95.003 15s9.709 1.177 13.897 3.54q6.27 3.543 9.934 9.814 3.657 6.27 3.659 14.129c0 5.238-1.222 10.023-3.659 14.203q-3.656 6.27-9.971 9.814c-4.21 2.363-8.83 3.54-13.853 3.54s-9.65-1.177-13.853-3.54zm22.4-8.271c2.467-1.46 4.389-3.555 5.775-6.275s2.079-5.872 2.079-9.471-.693-6.737-2.079-9.427c-1.386-2.698-3.308-4.762-5.775-6.2-2.459-1.438-5.313-2.154-8.547-2.154q-4.852-.001-8.585 2.154c-2.489 1.438-4.427 3.502-5.813 6.2s-2.079 5.835-2.079 9.427q0 5.39 2.08 9.471t5.812 6.275q3.733 2.19 8.585 2.19c3.234 0 6.08-.73 8.547-2.19M141.272 15.775v53.728h-10.776V15.775zM210.47 15.775v53.728h-10.775v-34.95l-14.397 34.95h-8.16l-14.472-34.95v34.95h-10.775V15.775h12.236l17.087 39.95 17.087-39.95h12.169M231.873 24.471v13.473h18.093v8.548h-18.093v14.24h20.396v8.779H221.09V15.7h31.179v8.778h-20.396z"/></g><path fill="#262628" d="M113.346 22.07c0-11.402-9.244-20.64-20.64-20.64s-20.64 9.244-20.64 20.64c-11.403 0-20.64 9.244-20.64 20.64s9.243 20.64 20.64 20.64c0 11.404 9.243 20.64 20.64 20.64s20.64-9.243 20.64-20.64c11.403 0 20.64-9.243 20.64-20.64s-9.244-20.64-20.64-20.64"/><path fill="currentColor" d="M92.706 85c-11.605 0-21.11-9.183-21.629-20.667-11.484-.518-20.667-10.024-20.667-21.629s9.183-21.111 20.667-21.629C71.595 9.591 81.101.408 92.707.408c11.604 0 21.11 9.183 21.628 20.667 11.484.518 20.667 10.024 20.667 21.629s-9.183 21.111-20.667 21.629C113.817 75.817 104.311 85 92.706 85m-20.64-61.92c-10.824 0-19.63 8.806-19.63 19.63s8.806 19.632 19.63 19.632h1.01v1.009c0 10.824 8.806 19.63 19.63 19.63s19.631-8.806 19.631-19.63v-1.01h1.009c10.825 0 19.631-8.806 19.631-19.63s-8.806-19.631-19.631-19.631h-1.009v-1.01c0-10.824-8.806-19.63-19.63-19.63s-19.632 8.806-19.632 19.63v1.01z"/></svg>